<svg width="16" height="16" viewBox="0 0 16 16" xmlns="http://www.w3.org/2000/svg">
  <defs>
    <linearGradient id="bgGrad16" x1="0%" y1="0%" x2="100%" y2="100%">
      <stop offset="0%" style="stop-color:#667eea;stop-opacity:1" />
      <stop offset="50%" style="stop-color:#764ba2;stop-opacity:1" />
      <stop offset="100%" style="stop-color:#f093fb;stop-opacity:1" />
    </linearGradient>
    <linearGradient id="starGrad16" x1="0%" y1="0%" x2="100%" y2="100%">
      <stop offset="0%" style="stop-color:#ffecd2;stop-opacity:1" />
      <stop offset="100%" style="stop-color:#fcb69f;stop-opacity:1" />
    </linearGradient>
    <linearGradient id="arrowGrad16" x1="0%" y1="0%" x2="100%" y2="100%">
      <stop offset="0%" style="stop-color:#4facfe;stop-opacity:1" />
      <stop offset="100%" style="stop-color:#00f2fe;stop-opacity:1" />
    </linearGradient>
    <filter id="glow16" x="-20%" y="-20%" width="140%" height="140%">
      <feGaussianBlur stdDeviation="1" result="coloredBlur"/>
      <feMerge> 
        <feMergeNode in="coloredBlur"/>
        <feMergeNode in="SourceGraphic"/>
      </feMerge>
    </filter>
  </defs>
  
  <!-- Minimal background - just rounded corners -->
  <rect x="0" y="0" width="16" height="16" fill="url(#bgGrad16)" rx="1.3333333333333333"/>
  
  <!-- MASSIVE star that fills 90% of the space -->
  <g transform="translate(8, 8)">
    <path d="M0,-7.2 L2.4,-2.4 L7.2,0 L2.4,2.4 L0,7.2 L-2.4,2.4 L-7.2,0 L-2.4,-2.4 Z" 
          fill="url(#starGrad16)" filter="url(#glow16)" stroke="rgba(255,255,255,0.8)" stroke-width="1"/>
  </g>
  
  <!-- LARGE upward arrow that covers most of the center -->
  <g transform="translate(8, 8)">
    <path d="M0,-4 L3.2,-0.8 L1.92,-0.8 L1.92,3.2 L-1.92,3.2 L-1.92,-0.8 L-3.2,-0.8 Z" 
          fill="url(#arrowGrad16)" filter="url(#glow16)" stroke="rgba(255,255,255,0.9)" stroke-width="1"/>
  </g>
  
  <!-- Minimal corner accents -->
  <circle cx="14.4" cy="1.6" r="0.96" fill="white" opacity="0.9"/>
  <circle cx="1.6" cy="14.4" r="0.96" fill="white" opacity="0.9"/>
  
  <!-- Tiny sparkles in corners -->
  <g transform="translate(2.4, 2.4)">
    <path d="M0,-0.64 L0.24,-0.24 L0.64,0 L0.24,0.24 L0,0.64 L-0.24,0.24 L-0.64,0 L-0.24,-0.24 Z" 
          fill="white" opacity="0.8"/>
  </g>
  <g transform="translate(13.6, 13.6)">
    <path d="M0,-0.64 L0.24,-0.24 L0.64,0 L0.24,0.24 L0,0.64 L-0.24,0.24 L-0.64,0 L-0.24,-0.24 Z" 
          fill="white" opacity="0.8"/>
  </g>
</svg>