<svg width="32" height="32" viewBox="0 0 32 32" xmlns="http://www.w3.org/2000/svg">
  <defs>
    <linearGradient id="bgGrad32" x1="0%" y1="0%" x2="100%" y2="100%">
      <stop offset="0%" style="stop-color:#667eea;stop-opacity:1" />
      <stop offset="50%" style="stop-color:#764ba2;stop-opacity:1" />
      <stop offset="100%" style="stop-color:#f093fb;stop-opacity:1" />
    </linearGradient>
    <linearGradient id="starGrad32" x1="0%" y1="0%" x2="100%" y2="100%">
      <stop offset="0%" style="stop-color:#ffecd2;stop-opacity:1" />
      <stop offset="100%" style="stop-color:#fcb69f;stop-opacity:1" />
    </linearGradient>
    <linearGradient id="arrowGrad32" x1="0%" y1="0%" x2="100%" y2="100%">
      <stop offset="0%" style="stop-color:#4facfe;stop-opacity:1" />
      <stop offset="100%" style="stop-color:#00f2fe;stop-opacity:1" />
    </linearGradient>
    <filter id="glow32" x="-20%" y="-20%" width="140%" height="140%">
      <feGaussianBlur stdDeviation="1" result="coloredBlur"/>
      <feMerge> 
        <feMergeNode in="coloredBlur"/>
        <feMergeNode in="SourceGraphic"/>
      </feMerge>
    </filter>
  </defs>
  
  <!-- Minimal background - just rounded corners -->
  <rect x="0" y="0" width="32" height="32" fill="url(#bgGrad32)" rx="2.6666666666666665"/>
  
  <!-- MASSIVE star that fills 90% of the space -->
  <g transform="translate(16, 16)">
    <path d="M0,-14.4 L4.8,-4.8 L14.4,0 L4.8,4.8 L0,14.4 L-4.8,4.8 L-14.4,0 L-4.8,-4.8 Z" 
          fill="url(#starGrad32)" filter="url(#glow32)" stroke="rgba(255,255,255,0.8)" stroke-width="1"/>
  </g>
  
  <!-- LARGE upward arrow that covers most of the center -->
  <g transform="translate(16, 16)">
    <path d="M0,-8 L6.4,-1.6 L3.84,-1.6 L3.84,6.4 L-3.84,6.4 L-3.84,-1.6 L-6.4,-1.6 Z" 
          fill="url(#arrowGrad32)" filter="url(#glow32)" stroke="rgba(255,255,255,0.9)" stroke-width="1"/>
  </g>
  
  <!-- Minimal corner accents -->
  <circle cx="28.8" cy="3.2" r="1.92" fill="white" opacity="0.9"/>
  <circle cx="3.2" cy="28.8" r="1.92" fill="white" opacity="0.9"/>
  
  <!-- Tiny sparkles in corners -->
  <g transform="translate(4.8, 4.8)">
    <path d="M0,-1.28 L0.48,-0.48 L1.28,0 L0.48,0.48 L0,1.28 L-0.48,0.48 L-1.28,0 L-0.48,-0.48 Z" 
          fill="white" opacity="0.8"/>
  </g>
  <g transform="translate(27.2, 27.2)">
    <path d="M0,-1.28 L0.48,-0.48 L1.28,0 L0.48,0.48 L0,1.28 L-0.48,0.48 L-1.28,0 L-0.48,-0.48 Z" 
          fill="white" opacity="0.8"/>
  </g>
</svg>