<svg width="48" height="48" viewBox="0 0 48 48" xmlns="http://www.w3.org/2000/svg">
  <defs>
    <linearGradient id="bgGrad48" x1="0%" y1="0%" x2="100%" y2="100%">
      <stop offset="0%" style="stop-color:#667eea;stop-opacity:1" />
      <stop offset="50%" style="stop-color:#764ba2;stop-opacity:1" />
      <stop offset="100%" style="stop-color:#f093fb;stop-opacity:1" />
    </linearGradient>
    <linearGradient id="starGrad48" x1="0%" y1="0%" x2="100%" y2="100%">
      <stop offset="0%" style="stop-color:#ffecd2;stop-opacity:1" />
      <stop offset="100%" style="stop-color:#fcb69f;stop-opacity:1" />
    </linearGradient>
    <linearGradient id="arrowGrad48" x1="0%" y1="0%" x2="100%" y2="100%">
      <stop offset="0%" style="stop-color:#4facfe;stop-opacity:1" />
      <stop offset="100%" style="stop-color:#00f2fe;stop-opacity:1" />
    </linearGradient>
    <filter id="glow48" x="-20%" y="-20%" width="140%" height="140%">
      <feGaussianBlur stdDeviation="1" result="coloredBlur"/>
      <feMerge> 
        <feMergeNode in="coloredBlur"/>
        <feMergeNode in="SourceGraphic"/>
      </feMerge>
    </filter>
  </defs>
  
  <!-- Minimal background - just rounded corners -->
  <rect x="0" y="0" width="48" height="48" fill="url(#bgGrad48)" rx="4"/>
  
  <!-- MASSIVE star that fills 90% of the space -->
  <g transform="translate(24, 24)">
    <path d="M0,-21.6 L7.199999999999999,-7.199999999999999 L21.6,0 L7.199999999999999,7.199999999999999 L0,21.6 L-7.199999999999999,7.199999999999999 L-21.6,0 L-7.199999999999999,-7.199999999999999 Z" 
          fill="url(#starGrad48)" filter="url(#glow48)" stroke="rgba(255,255,255,0.8)" stroke-width="1"/>
  </g>
  
  <!-- LARGE upward arrow that covers most of the center -->
  <g transform="translate(24, 24)">
    <path d="M0,-12 L9.600000000000001,-2.4000000000000004 L5.76,-2.4000000000000004 L5.76,9.600000000000001 L-5.76,9.600000000000001 L-5.76,-2.4000000000000004 L-9.600000000000001,-2.4000000000000004 Z" 
          fill="url(#arrowGrad48)" filter="url(#glow48)" stroke="rgba(255,255,255,0.9)" stroke-width="1"/>
  </g>
  
  <!-- Minimal corner accents -->
  <circle cx="43.2" cy="4.800000000000001" r="2.88" fill="white" opacity="0.9"/>
  <circle cx="4.800000000000001" cy="43.2" r="2.88" fill="white" opacity="0.9"/>
  
  <!-- Tiny sparkles in corners -->
  <g transform="translate(7.199999999999999, 7.199999999999999)">
    <path d="M0,-1.92 L0.72,-0.72 L1.92,0 L0.72,0.72 L0,1.92 L-0.72,0.72 L-1.92,0 L-0.72,-0.72 Z" 
          fill="white" opacity="0.8"/>
  </g>
  <g transform="translate(40.8, 40.8)">
    <path d="M0,-1.92 L0.72,-0.72 L1.92,0 L0.72,0.72 L0,1.92 L-0.72,0.72 L-1.92,0 L-0.72,-0.72 Z" 
          fill="white" opacity="0.8"/>
  </g>
</svg>