<svg width="128" height="128" viewBox="0 0 128 128" xmlns="http://www.w3.org/2000/svg">
  <defs>
    <linearGradient id="bgGrad128" x1="0%" y1="0%" x2="100%" y2="100%">
      <stop offset="0%" style="stop-color:#667eea;stop-opacity:1" />
      <stop offset="50%" style="stop-color:#764ba2;stop-opacity:1" />
      <stop offset="100%" style="stop-color:#f093fb;stop-opacity:1" />
    </linearGradient>
    <linearGradient id="starGrad128" x1="0%" y1="0%" x2="100%" y2="100%">
      <stop offset="0%" style="stop-color:#ffecd2;stop-opacity:1" />
      <stop offset="100%" style="stop-color:#fcb69f;stop-opacity:1" />
    </linearGradient>
    <linearGradient id="arrowGrad128" x1="0%" y1="0%" x2="100%" y2="100%">
      <stop offset="0%" style="stop-color:#4facfe;stop-opacity:1" />
      <stop offset="100%" style="stop-color:#00f2fe;stop-opacity:1" />
    </linearGradient>
    <filter id="glow128" x="-50%" y="-50%" width="200%" height="200%">
      <feGaussianBlur stdDeviation="2" result="coloredBlur"/>
      <feMerge> 
        <feMergeNode in="coloredBlur"/>
        <feMergeNode in="SourceGraphic"/>
      </feMerge>
    </filter>
  </defs>
  
  <!-- Full background with beautiful gradient -->
  <rect x="0" y="0" width="128" height="128" fill="url(#bgGrad128)" rx="16"/>
  
  <!-- Large central star that fills most of the space -->
  <g transform="translate(64, 64)">
    <path d="M0,-44.8 L15.36,-15.36 L44.8,0 L15.36,15.36 L0,44.8 L-15.36,15.36 L-44.8,0 L-15.36,-15.36 Z" 
          fill="url(#starGrad128)" filter="url(#glow128)"/>
  </g>
  
  <!-- Large upward arrow in the center -->
  <g transform="translate(64, 64)">
    <path d="M0,-25.6 L19.2,-6.4 L10.24,-6.4 L10.24,19.2 L-10.24,19.2 L-10.24,-6.4 L-19.2,-6.4 Z" 
          fill="url(#arrowGrad128)" filter="url(#glow128)"/>
  </g>
  
  <!-- Corner accent elements -->
  <circle cx="108.8" cy="19.2" r="10.24" fill="white" opacity="0.8" filter="url(#glow128)"/>
  <circle cx="19.2" cy="108.8" r="10.24" fill="white" opacity="0.8" filter="url(#glow128)"/>
  
  <!-- Small decorative stars in corners -->
  <g transform="translate(25.6, 25.6)">
    <path d="M0,-7.68 L2.56,-2.56 L7.68,0 L2.56,2.56 L0,7.68 L-2.56,2.56 L-7.68,0 L-2.56,-2.56 Z" 
          fill="white" opacity="0.6"/>
  </g>
  <g transform="translate(102.4, 102.4)">
    <path d="M0,-7.68 L2.56,-2.56 L7.68,0 L2.56,2.56 L0,7.68 L-2.56,2.56 L-7.68,0 L-2.56,-2.56 Z" 
          fill="white" opacity="0.6"/>
  </g>
  
  <!-- Subtle border for definition -->
  <rect x="1" y="1" width="126" height="126" fill="none" stroke="rgba(255,255,255,0.3)" stroke-width="1" rx="15"/>
</svg>