<svg width="32" height="32" viewBox="0 0 32 32" xmlns="http://www.w3.org/2000/svg">
  <defs>
    <linearGradient id="bgGrad32" x1="0%" y1="0%" x2="100%" y2="100%">
      <stop offset="0%" style="stop-color:#667eea;stop-opacity:1" />
      <stop offset="50%" style="stop-color:#764ba2;stop-opacity:1" />
      <stop offset="100%" style="stop-color:#f093fb;stop-opacity:1" />
    </linearGradient>
    <linearGradient id="starGrad32" x1="0%" y1="0%" x2="100%" y2="100%">
      <stop offset="0%" style="stop-color:#ffecd2;stop-opacity:1" />
      <stop offset="100%" style="stop-color:#fcb69f;stop-opacity:1" />
    </linearGradient>
    <linearGradient id="arrowGrad32" x1="0%" y1="0%" x2="100%" y2="100%">
      <stop offset="0%" style="stop-color:#4facfe;stop-opacity:1" />
      <stop offset="100%" style="stop-color:#00f2fe;stop-opacity:1" />
    </linearGradient>
    <filter id="glow32" x="-50%" y="-50%" width="200%" height="200%">
      <feGaussianBlur stdDeviation="2" result="coloredBlur"/>
      <feMerge> 
        <feMergeNode in="coloredBlur"/>
        <feMergeNode in="SourceGraphic"/>
      </feMerge>
    </filter>
  </defs>
  
  <!-- Full background with beautiful gradient -->
  <rect x="0" y="0" width="32" height="32" fill="url(#bgGrad32)" rx="4"/>
  
  <!-- Large central star that fills most of the space -->
  <g transform="translate(16, 16)">
    <path d="M0,-11.2 L3.84,-3.84 L11.2,0 L3.84,3.84 L0,11.2 L-3.84,3.84 L-11.2,0 L-3.84,-3.84 Z" 
          fill="url(#starGrad32)" filter="url(#glow32)"/>
  </g>
  
  <!-- Large upward arrow in the center -->
  <g transform="translate(16, 16)">
    <path d="M0,-6.4 L4.8,-1.6 L2.56,-1.6 L2.56,4.8 L-2.56,4.8 L-2.56,-1.6 L-4.8,-1.6 Z" 
          fill="url(#arrowGrad32)" filter="url(#glow32)"/>
  </g>
  
  <!-- Corner accent elements -->
  <circle cx="27.2" cy="4.8" r="2.56" fill="white" opacity="0.8" filter="url(#glow32)"/>
  <circle cx="4.8" cy="27.2" r="2.56" fill="white" opacity="0.8" filter="url(#glow32)"/>
  
  <!-- Small decorative stars in corners -->
  <g transform="translate(6.4, 6.4)">
    <path d="M0,-1.92 L0.64,-0.64 L1.92,0 L0.64,0.64 L0,1.92 L-0.64,0.64 L-1.92,0 L-0.64,-0.64 Z" 
          fill="white" opacity="0.6"/>
  </g>
  <g transform="translate(25.6, 25.6)">
    <path d="M0,-1.92 L0.64,-0.64 L1.92,0 L0.64,0.64 L0,1.92 L-0.64,0.64 L-1.92,0 L-0.64,-0.64 Z" 
          fill="white" opacity="0.6"/>
  </g>
  
  <!-- Subtle border for definition -->
  <rect x="1" y="1" width="30" height="30" fill="none" stroke="rgba(255,255,255,0.3)" stroke-width="1" rx="3"/>
</svg>